<svg width="18" height="17" viewBox="0 0 18 17" fill="none" xmlns="http://www.w3.org/2000/svg">
<path d="M17.5645 4.17886C17.2852 3.53722 16.8825 2.95577 16.379 2.46707C15.875 1.9769 15.2808 1.58738 14.6288 1.31967C13.9526 1.04097 13.2274 0.898321 12.4952 0.899993C11.468 0.899993 10.4658 1.17909 9.59485 1.70627C9.38649 1.83238 9.18855 1.9709 9.00103 2.12182C8.81351 1.9709 8.61557 1.83238 8.40721 1.70627C7.53628 1.17909 6.53408 0.899993 5.50688 0.899993C4.76721 0.899993 4.05046 1.04058 3.3733 1.31967C2.71906 1.58843 2.12941 1.97503 1.6231 2.46707C1.11887 2.95522 0.716078 3.53681 0.43755 4.17886C0.147934 4.84663 0 5.55574 0 6.28552C0 6.97396 0.141683 7.69134 0.422965 8.42113C0.658409 9.03101 0.995947 9.66362 1.42725 10.3024C2.11066 11.3134 3.05035 12.3678 4.21715 13.4366C6.1507 15.2083 8.06551 16.4322 8.14677 16.4819L8.64057 16.7961C8.85935 16.9346 9.14063 16.9346 9.35941 16.7961L9.85321 16.4819C9.93447 16.4302 11.8472 15.2083 13.7828 13.4366C14.9496 12.3678 15.8893 11.3134 16.5727 10.3024C17.004 9.66362 17.3437 9.03101 17.577 8.42113C17.8583 7.69134 18 6.97396 18 6.28552C18.0021 5.55574 17.8541 4.84663 17.5645 4.17886V4.17886Z" fill="#DC1B32"/>
</svg>
