<svg width="18" height="19" viewBox="0 0 18 19" fill="none" xmlns="http://www.w3.org/2000/svg">
<path d="M8.92863 7.14286H10.7143V4.46429H13.3929V2.67857H10.7143V0H8.92863V2.67857H6.25006V4.46429H8.92863V7.14286ZM5.3572 15.1786C4.8836 15.1786 4.4294 15.3667 4.09451 15.7016C3.75963 16.0365 3.57149 16.4907 3.57149 16.9643C3.57149 17.4379 3.75963 17.8921 4.09451 18.227C4.4294 18.5619 4.8836 18.75 5.3572 18.75C5.8308 18.75 6.28501 18.5619 6.61989 18.227C6.95478 17.8921 7.14292 17.4379 7.14292 16.9643C7.14292 16.4907 6.95478 16.0365 6.61989 15.7016C6.28501 15.3667 5.8308 15.1786 5.3572 15.1786ZM14.2858 15.1786C13.8122 15.1786 13.358 15.3667 13.0231 15.7016C12.6882 16.0365 12.5001 16.4907 12.5001 16.9643C12.5001 17.4379 12.6882 17.8921 13.0231 18.227C13.358 18.5619 13.8122 18.75 14.2858 18.75C14.7594 18.75 15.2136 18.5619 15.5485 18.227C15.8834 17.8921 16.0715 17.4379 16.0715 16.9643C16.0715 16.4907 15.8834 16.0365 15.5485 15.7016C15.2136 15.3667 14.7594 15.1786 14.2858 15.1786ZM5.50899 12.2768L5.53578 12.1696L6.33935 10.7143H12.9911C13.6608 10.7143 14.2501 10.3482 14.5536 9.79464L18.0001 3.53571L16.4465 2.67857H16.4376L15.4554 4.46429L12.9911 8.92857H6.72328L6.6072 8.6875L4.6072 4.46429L3.75899 2.67857L2.9197 0.892857H6.10352e-05V2.67857H1.78578L5.00006 9.45536L3.7947 11.6429C3.65185 11.8929 3.57149 12.1875 3.57149 12.5C3.57149 12.9736 3.75963 13.4278 4.09451 13.7627C4.4294 14.0976 4.8836 14.2857 5.3572 14.2857H16.0715V12.5H5.7322C5.61613 12.5 5.50899 12.4018 5.50899 12.2768Z" fill="#A2A2A2"/>
</svg>
