<svg width="230" height="39" viewBox="0 0 230 39" fill="none" xmlns="http://www.w3.org/2000/svg">
<path fill-rule="evenodd" clip-rule="evenodd" d="M67.1909 26.6508L67.1698 18.0908L62.8917 25.1375H61.3959L57.1178 18.2559V26.6508H53.9602V12.3526H56.7416L62.1851 21.2375L67.546 12.3526H70.3274L70.3486 26.6508H67.1909ZM73.2905 12.3526H76.6346V21.6652L83.5712 12.3526H86.7289V26.6508H83.406V17.3563L76.4666 26.6508H73.2905V12.3526ZM95.9649 12.3526C97.2526 12.3526 98.3702 12.562 99.3199 12.9843C100.266 13.4066 100.997 14.0075 101.509 14.7836C102.021 15.5597 102.278 16.4775 102.278 17.5396C102.278 18.5889 102.021 19.504 101.509 20.2882C100.997 21.0697 100.266 21.6705 99.3199 22.0848C98.3702 22.499 97.2526 22.7085 95.9649 22.7085H93.036V26.6508H89.6708V12.3526H95.9649ZM95.7779 20.0129C96.789 20.0129 97.5571 19.7981 98.0821 19.3677C98.6078 18.9401 98.8713 18.3291 98.8713 17.5396C98.8713 16.7373 98.6078 16.121 98.0821 15.6906C97.5571 15.2636 96.789 15.0481 95.7779 15.0481H93.036V20.0129H95.7779ZM115.542 20.8891H113.217V26.6508H109.873V12.3526H113.217V18.1324H115.625L119.45 12.3526H122.999L118.244 19.2549L123.146 26.6508H119.324L115.542 20.8891ZM135.31 23.9942V26.6508H124.05V12.3526H135.041V15.0065H127.395V18.1116H134.147V20.6843H127.395V23.9942H135.31ZM143.652 12.3526C144.938 12.3526 146.058 12.562 147.004 12.9843C147.954 13.4066 148.685 14.0075 149.197 14.7836C149.709 15.5597 149.965 16.4775 149.965 17.5396C149.965 18.5889 149.709 19.504 149.197 20.2882C148.685 21.0697 147.954 21.6705 147.004 22.0848C146.058 22.499 144.938 22.7085 143.652 22.7085H140.721V26.6508H137.358V12.3526H143.652ZM143.466 20.0129C144.476 20.0129 145.244 19.7981 145.77 19.3677C146.295 18.9401 146.559 18.3291 146.559 17.5396C146.559 16.7373 146.295 16.121 145.77 15.6906C145.244 15.2636 144.476 15.0481 143.466 15.0481H140.721V20.0129H143.466ZM160.632 23.5873H153.883L152.595 26.6508H149.146L155.627 12.3526H158.952L165.455 26.6508H161.921L160.632 23.5873ZM159.574 21.075L157.27 15.5993L154.963 21.075H159.574ZM179.944 26.6508L179.923 18.0908L175.642 25.1375H174.149L169.869 18.2559V26.6508H166.711V12.3526H169.495L174.938 21.2375L180.296 12.3526H183.08L183.101 26.6508H179.944ZM186.041 12.3526H189.385V21.6652L196.325 12.3526H199.482V26.6508H196.157V17.3563L189.219 26.6508H186.041V12.3526ZM208.051 20.8891H205.725V26.6508H202.381V12.3526H205.725V18.1324H208.134L211.955 12.3526H215.508L210.752 19.2549L215.654 26.6508H211.832L208.051 20.8891ZM216.558 12.3526H219.903V21.6652L226.842 12.3526H230V26.6508H226.674V17.3563L219.738 26.6508H216.558V12.3526ZM10.1448 8.59155H29.5148C30.291 8.59155 30.926 9.21324 30.926 9.97659V29.0241C30.926 29.7868 30.291 30.4111 29.5148 30.4111H10.1448C9.36921 30.4111 8.73426 29.7868 8.73426 29.0241V9.97659C8.73426 9.21324 9.36921 8.59155 10.1448 8.59155ZM19.8288 0C30.7819 0 39.6602 8.73052 39.6602 19.5013C39.6602 30.2695 30.7819 39 19.8288 39C8.87832 39 0 30.2695 0 19.5013C0 8.73052 8.87832 0 19.8288 0Z" fill="#DC1B32"/>
</svg>
