<svg width="18" height="18" viewBox="0 0 18 18" fill="none" xmlns="http://www.w3.org/2000/svg">
<path d="M9.60306 15.966L9.00006 16.515L7.69506 15.327C3.06006 11.124 6.10352e-05 8.343 6.10352e-05 4.95C6.10352e-05 2.169 2.17806 0 4.95006 0C6.51606 0 8.01906 0.729 9.00006 1.872C9.98106 0.729 11.4841 0 13.0501 0C15.8221 0 18.0001 2.169 18.0001 4.95C18.0001 6.237 17.5501 7.434 16.7581 8.649C16.2001 8.379 15.5791 8.199 14.9311 8.136C15.7501 7.02 16.2001 5.985 16.2001 4.95C16.2001 3.15 14.8501 1.8 13.0501 1.8C11.6641 1.8 10.3141 2.7 9.83706 3.924H8.16306C7.68606 2.7 6.33606 1.8 4.95006 1.8C3.15006 1.8 1.80006 3.15 1.80006 4.95C1.80006 7.551 4.62606 10.116 8.90106 13.995L9.00006 14.085L9.03606 14.049C9.10806 14.733 9.30606 15.381 9.60306 15.966ZM13.5001 9.9V12.6H10.8001V14.4H13.5001V17.1H15.3001V14.4H18.0001V12.6H15.3001V9.9H13.5001Z" fill="#A2A2A2"/>
</svg>
